<svg xmlns="http://www.w3.org/2000/svg" viewBox="0 0 180 180" width="180" height="180">
  <defs>
    <linearGradient id="ps-grad-lg" x1="0%" y1="0%" x2="100%" y2="100%">
      <stop offset="0%" stop-color="#4F46E5" />
      <stop offset="50%" stop-color="#6366F1" />
      <stop offset="100%" stop-color="#06B6D4" />
    </linearGradient>
  </defs>
  <rect width="180" height="180" rx="42" fill="url(#ps-grad-lg)" />
  <path d="M90 30 C90 62 105 90 135 90 C105 90 90 118 90 150 C90 118 75 90 45 90 C75 90 90 62 90 30 Z" fill="#FFFFFF" />
  <path d="M130 28 C130 38 136 44 146 44 C136 44 130 50 130 60 C130 50 124 44 114 44 C124 44 130 38 130 28 Z" fill="#E0F2FE" />
</svg>
