<svg xmlns="http://www.w3.org/2000/svg" viewBox="0 0 32 32" width="32" height="32">
  <defs>
    <linearGradient id="ps-grad" x1="0%" y1="0%" x2="100%" y2="100%">
      <stop offset="0%" stop-color="#4F46E5" />
      <stop offset="50%" stop-color="#6366F1" />
      <stop offset="100%" stop-color="#06B6D4" />
    </linearGradient>
  </defs>
  <rect width="32" height="32" rx="8" fill="url(#ps-grad)" />
  <path d="M16 5.5 C16 11 18.5 16 24 16 C18.5 16 16 21 16 26.5 C16 21 13.5 16 8 16 C13.5 16 16 11 16 5.5 Z" fill="#FFFFFF" />
  <path d="M23 5 C23 6.8 24 7.8 25.8 7.8 C24 7.8 23 8.8 23 10.6 C23 8.8 22 7.8 20.2 7.8 C22 7.8 23 6.8 23 5 Z" fill="#E0F2FE" />
</svg>
